<svg width="110" height="26" viewBox="0 0 110 26" fill="none" xmlns="http://www.w3.org/2000/svg">
<path d="M0.0227273 1.72727H6.09091L12.5 17.3636H12.7727L19.1818 1.72727H25.25V25H20.4773V9.85227H20.2841L14.2614 24.8864H11.0114L4.98864 9.79545H4.79545V25H0.0227273V1.72727ZM37.1676 25.3409C35.3722 25.3409 33.8267 24.9773 32.5312 24.25C31.2434 23.5152 30.2509 22.4773 29.554 21.1364C28.857 19.7879 28.5085 18.1932 28.5085 16.3523C28.5085 14.5568 28.857 12.9811 29.554 11.625C30.2509 10.2689 31.232 9.21212 32.4972 8.45454C33.7699 7.69697 35.2623 7.31818 36.9744 7.31818C38.1259 7.31818 39.1979 7.50379 40.1903 7.875C41.1903 8.23864 42.0616 8.78788 42.804 9.52273C43.554 10.2576 44.1373 11.1818 44.554 12.2955C44.9706 13.4015 45.179 14.697 45.179 16.1818V17.5114H30.4403V14.5114H40.6222C40.6222 13.8144 40.4706 13.197 40.1676 12.6591C39.8646 12.1212 39.4441 11.7008 38.9062 11.3977C38.3759 11.0871 37.7585 10.9318 37.054 10.9318C36.3191 10.9318 35.6676 11.1023 35.0994 11.4432C34.5388 11.7765 34.0994 12.2273 33.7812 12.7955C33.4631 13.3561 33.3002 13.9811 33.2926 14.6705V17.5227C33.2926 18.3864 33.4517 19.1326 33.7699 19.7614C34.0956 20.3902 34.554 20.875 35.1449 21.2159C35.7358 21.5568 36.4366 21.7273 37.2472 21.7273C37.785 21.7273 38.2775 21.6515 38.7244 21.5C39.1714 21.3485 39.554 21.1212 39.8722 20.8182C40.1903 20.5152 40.4328 20.1439 40.5994 19.7045L45.0767 20C44.8494 21.0758 44.3835 22.0152 43.679 22.8182C42.982 23.6136 42.0805 24.2348 40.9744 24.6818C39.8759 25.1212 38.607 25.3409 37.1676 25.3409ZM35.1222 5.29545L37.5312 0.125H42.0085L38.5426 5.29545H35.1222ZM57.6222 7.54545V11.1818H47.1108V7.54545H57.6222ZM49.4972 3.36364H54.3381V19.6364C54.3381 20.0833 54.4063 20.4318 54.5426 20.6818C54.679 20.9242 54.8684 21.0947 55.1108 21.1932C55.3608 21.2917 55.6487 21.3409 55.9744 21.3409C56.2017 21.3409 56.429 21.322 56.6562 21.2841C56.8835 21.2386 57.0578 21.2045 57.179 21.1818L57.9403 24.7841C57.6979 24.8598 57.357 24.947 56.9176 25.0455C56.4782 25.1515 55.9441 25.2159 55.3153 25.2386C54.1487 25.2841 53.1259 25.1288 52.2472 24.7727C51.3759 24.4167 50.6979 23.8636 50.2131 23.1136C49.7282 22.3636 49.4896 21.4167 49.4972 20.2727V3.36364ZM60.7756 25V7.54545H65.6165V25H60.7756ZM63.2074 5.29545C62.4877 5.29545 61.8703 5.05682 61.3551 4.57954C60.8475 4.0947 60.5938 3.51515 60.5938 2.84091C60.5938 2.17424 60.8475 1.60227 61.3551 1.125C61.8703 0.640151 62.4877 0.397726 63.2074 0.397726C63.9271 0.397726 64.5407 0.640151 65.0483 1.125C65.5634 1.60227 65.821 2.17424 65.821 2.84091C65.821 3.51515 65.5634 4.0947 65.0483 4.57954C64.5407 5.05682 63.9271 5.29545 63.2074 5.29545ZM77.4489 25.3409C75.6534 25.3409 74.108 24.9773 72.8125 24.25C71.5246 23.5152 70.5322 22.4773 69.8352 21.1364C69.1383 19.7879 68.7898 18.1932 68.7898 16.3523C68.7898 14.5568 69.1383 12.9811 69.8352 11.625C70.5322 10.2689 71.5133 9.21212 72.7784 8.45454C74.0511 7.69697 75.5436 7.31818 77.2557 7.31818C78.4072 7.31818 79.4792 7.50379 80.4716 7.875C81.4716 8.23864 82.3428 8.78788 83.0852 9.52273C83.8352 10.2576 84.4186 11.1818 84.8352 12.2955C85.2519 13.4015 85.4602 14.697 85.4602 16.1818V17.5114H70.7216V14.5114H80.9034C80.9034 13.8144 80.7519 13.197 80.4489 12.6591C80.1458 12.1212 79.7254 11.7008 79.1875 11.3977C78.6572 11.0871 78.0398 10.9318 77.3352 10.9318C76.6004 10.9318 75.9489 11.1023 75.3807 11.4432C74.8201 11.7765 74.3807 12.2273 74.0625 12.7955C73.7443 13.3561 73.5814 13.9811 73.5739 14.6705V17.5227C73.5739 18.3864 73.733 19.1326 74.0511 19.7614C74.3769 20.3902 74.8352 20.875 75.4261 21.2159C76.017 21.5568 76.7178 21.7273 77.5284 21.7273C78.0663 21.7273 78.5587 21.6515 79.0057 21.5C79.4527 21.3485 79.8352 21.1212 80.1534 20.8182C80.4716 20.5152 80.714 20.1439 80.8807 19.7045L85.358 20C85.1307 21.0758 84.6648 22.0152 83.9602 22.8182C83.2633 23.6136 82.3617 24.2348 81.2557 24.6818C80.1572 25.1212 78.8883 25.3409 77.4489 25.3409ZM88.6193 25V7.54545H93.3125V10.5909H93.4943C93.8125 9.50758 94.3466 8.68939 95.0966 8.13636C95.8466 7.57576 96.7102 7.29545 97.6875 7.29545C97.9299 7.29545 98.1913 7.31061 98.4716 7.34091C98.7519 7.37121 98.9981 7.41288 99.2102 7.46591V11.7614C98.983 11.6932 98.6686 11.6326 98.267 11.5795C97.8655 11.5265 97.4981 11.5 97.1648 11.5C96.4527 11.5 95.8163 11.6553 95.2557 11.9659C94.7027 12.2689 94.2633 12.6932 93.9375 13.2386C93.6193 13.7841 93.4602 14.4129 93.4602 15.125V25H88.6193Z" fill="white"/>
<path d="M106.031 25.3878C105.046 25.3878 104.201 25.0398 103.495 24.3438C102.799 23.6378 102.451 22.7926 102.451 21.8082C102.451 20.8338 102.799 19.9986 103.495 19.3026C104.201 18.6065 105.046 18.2585 106.031 18.2585C106.985 18.2585 107.82 18.6065 108.536 19.3026C109.252 19.9986 109.61 20.8338 109.61 21.8082C109.61 22.4645 109.441 23.0661 109.103 23.6129C108.775 24.1499 108.342 24.5824 107.805 24.9105C107.268 25.2287 106.677 25.3878 106.031 25.3878Z" fill="#E0A500"/>
</svg>
